<svg xmlns="http://www.w3.org/2000/svg" xmlns:xlink="http://www.w3.org/1999/xlink" width="500" zoomAndPan="magnify" viewBox="0 0 375 374.999991" height="500" preserveAspectRatio="xMidYMid meet" version="1.0"><defs><g/></defs><rect x="-37.5" width="450" fill="#ffffff" y="-37.499999" height="449.999989" fill-opacity="1"/><rect x="-37.5" width="450" fill="#ffffff" y="-37.499999" height="449.999989" fill-opacity="1"/><g fill="#000000" fill-opacity="1"><g transform="translate(64.582032, 214.274986)"><g><path d="M 4.046875 0 L 4.046875 -3.21875 C 8.335938 -3.3125 11.019531 -3.742188 12.09375 -4.515625 C 13.164062 -5.285156 13.703125 -6.945312 13.703125 -9.5 L 13.703125 -54.140625 C 13.703125 -56.628906 13.171875 -58.257812 12.109375 -59.03125 C 11.054688 -59.8125 8.378906 -60.226562 4.078125 -60.28125 L 4.046875 -63.546875 L 31.75 -63.546875 L 31.75 -60.28125 C 27.539062 -60.164062 24.945312 -59.722656 23.96875 -58.953125 C 23 -58.179688 22.515625 -56.578125 22.515625 -54.140625 L 22.515625 -34.328125 L 49.96875 -34.328125 L 49.96875 -54.140625 C 49.96875 -56.628906 49.4375 -58.257812 48.375 -59.03125 C 47.320312 -59.8125 44.757812 -60.226562 40.6875 -60.28125 L 40.65625 -63.546875 L 68.453125 -63.546875 L 68.453125 -60.28125 C 63.984375 -60.164062 61.253906 -59.722656 60.265625 -58.953125 C 59.273438 -58.179688 58.78125 -56.578125 58.78125 -54.140625 L 58.78125 -9.5 C 58.78125 -6.945312 59.320312 -5.285156 60.40625 -4.515625 C 61.5 -3.742188 64.179688 -3.328125 68.453125 -3.265625 L 68.453125 0 L 40.65625 0 L 40.65625 -3.21875 C 44.71875 -3.3125 47.285156 -3.75 48.359375 -4.53125 C 49.429688 -5.320312 49.96875 -6.976562 49.96875 -9.5 L 49.96875 -29.90625 L 22.515625 -29.90625 L 22.515625 -9.5 C 22.515625 -6.945312 23.054688 -5.273438 24.140625 -4.484375 C 25.234375 -3.703125 27.769531 -3.296875 31.75 -3.265625 L 31.75 0 Z M 4.046875 0 "/></g></g></g><g fill="#000000" fill-opacity="1"><g transform="translate(137.110057, 214.274986)"><g><path d="M 11.4375 -20.84375 C 11.4375 -14.132812 12.25 -9.257812 13.875 -6.21875 C 15.507812 -3.1875 18.101562 -1.671875 21.65625 -1.671875 C 25.175781 -1.671875 27.738281 -3.179688 29.34375 -6.203125 C 30.945312 -9.234375 31.75 -14.113281 31.75 -20.84375 C 31.75 -27.601562 30.945312 -32.507812 29.34375 -35.5625 C 27.738281 -38.613281 25.175781 -40.140625 21.65625 -40.140625 C 18.101562 -40.140625 15.507812 -38.601562 13.875 -35.53125 C 12.25 -32.46875 11.4375 -27.570312 11.4375 -20.84375 Z M 3.1875 -20.84375 C 3.1875 -23.820312 3.644531 -26.65625 4.5625 -29.34375 C 5.476562 -32.039062 6.804688 -34.4375 8.546875 -36.53125 C 10.328125 -38.644531 12.367188 -40.289062 14.671875 -41.46875 C 16.984375 -42.644531 19.34375 -43.234375 21.75 -43.234375 C 24.039062 -43.234375 26.316406 -42.648438 28.578125 -41.484375 C 30.835938 -40.328125 32.867188 -38.703125 34.671875 -36.609375 C 36.390625 -34.578125 37.726562 -32.175781 38.6875 -29.40625 C 39.65625 -26.644531 40.140625 -23.789062 40.140625 -20.84375 C 40.140625 -17.945312 39.664062 -15.140625 38.71875 -12.421875 C 37.769531 -9.703125 36.421875 -7.265625 34.671875 -5.109375 C 32.929688 -2.960938 30.957031 -1.335938 28.75 -0.234375 C 26.539062 0.867188 24.175781 1.421875 21.65625 1.421875 C 16.582031 1.421875 12.234375 -0.738281 8.609375 -5.0625 C 4.992188 -9.394531 3.1875 -14.65625 3.1875 -20.84375 Z M 3.1875 -20.84375 "/></g></g></g><g fill="#000000" fill-opacity="1"><g transform="translate(180.420632, 214.274986)"><g><path d="M 22.09375 -39.625 C 18.65625 -39.625 16.078125 -38.03125 14.359375 -34.84375 C 12.640625 -31.664062 11.78125 -26.882812 11.78125 -20.5 C 11.78125 -14.019531 12.609375 -9.175781 14.265625 -5.96875 C 15.929688 -2.757812 18.425781 -1.15625 21.75 -1.15625 C 25.007812 -1.15625 27.726562 -3.003906 29.90625 -6.703125 C 32.082031 -10.398438 33.171875 -15.113281 33.171875 -20.84375 C 33.171875 -26.65625 32.175781 -31.238281 30.1875 -34.59375 C 28.195312 -37.945312 25.5 -39.625 22.09375 -39.625 Z M 33.609375 1.59375 L 33.609375 -8.171875 L 33.265625 -8.171875 C 31.941406 -4.984375 30.160156 -2.554688 27.921875 -0.890625 C 25.691406 0.765625 23.070312 1.59375 20.0625 1.59375 C 15.226562 1.59375 11.21875 -0.460938 8.03125 -4.578125 C 4.851562 -8.691406 3.265625 -13.96875 3.265625 -20.40625 C 3.265625 -26.625 4.972656 -31.945312 8.390625 -36.375 C 11.816406 -40.800781 15.851562 -43.015625 20.5 -43.015625 C 23.28125 -43.015625 25.816406 -42.15625 28.109375 -40.4375 C 30.398438 -38.71875 32.0625 -36.410156 33.09375 -33.515625 L 33.515625 -33.515625 L 33.515625 -54.234375 C 33.515625 -56.460938 32.976562 -58.023438 31.90625 -58.921875 C 30.832031 -59.828125 28.90625 -60.28125 26.125 -60.28125 L 24.53125 -60.28125 L 24.53125 -63.546875 C 27.164062 -63.660156 29.785156 -63.816406 32.390625 -64.015625 C 35.003906 -64.222656 37.671875 -64.46875 40.390625 -64.75 L 40.390625 -6.0625 C 40.390625 -4.96875 40.78125 -4.171875 41.5625 -3.671875 C 42.351562 -3.171875 43.640625 -2.921875 45.421875 -2.921875 L 45.9375 -2.921875 L 45.9375 -0.09375 C 43.007812 0.144531 40.535156 0.398438 38.515625 0.671875 C 36.503906 0.941406 34.867188 1.25 33.609375 1.59375 Z M 33.609375 1.59375 "/></g></g></g><g fill="#000000" fill-opacity="1"><g transform="translate(228.629427, 214.274986)"><g><path d="M 11.4375 -20.84375 C 11.4375 -14.132812 12.25 -9.257812 13.875 -6.21875 C 15.507812 -3.1875 18.101562 -1.671875 21.65625 -1.671875 C 25.175781 -1.671875 27.738281 -3.179688 29.34375 -6.203125 C 30.945312 -9.234375 31.75 -14.113281 31.75 -20.84375 C 31.75 -27.601562 30.945312 -32.507812 29.34375 -35.5625 C 27.738281 -38.613281 25.175781 -40.140625 21.65625 -40.140625 C 18.101562 -40.140625 15.507812 -38.601562 13.875 -35.53125 C 12.25 -32.46875 11.4375 -27.570312 11.4375 -20.84375 Z M 3.1875 -20.84375 C 3.1875 -23.820312 3.644531 -26.65625 4.5625 -29.34375 C 5.476562 -32.039062 6.804688 -34.4375 8.546875 -36.53125 C 10.328125 -38.644531 12.367188 -40.289062 14.671875 -41.46875 C 16.984375 -42.644531 19.34375 -43.234375 21.75 -43.234375 C 24.039062 -43.234375 26.316406 -42.648438 28.578125 -41.484375 C 30.835938 -40.328125 32.867188 -38.703125 34.671875 -36.609375 C 36.390625 -34.578125 37.726562 -32.175781 38.6875 -29.40625 C 39.65625 -26.644531 40.140625 -23.789062 40.140625 -20.84375 C 40.140625 -17.945312 39.664062 -15.140625 38.71875 -12.421875 C 37.769531 -9.703125 36.421875 -7.265625 34.671875 -5.109375 C 32.929688 -2.960938 30.957031 -1.335938 28.75 -0.234375 C 26.539062 0.867188 24.175781 1.421875 21.65625 1.421875 C 16.582031 1.421875 12.234375 -0.738281 8.609375 -5.0625 C 4.992188 -9.394531 3.1875 -14.65625 3.1875 -20.84375 Z M 3.1875 -20.84375 "/></g></g></g><g fill="#000000" fill-opacity="1"><g transform="translate(271.93999, 214.274986)"><g><path d="M 3.609375 1.421875 L 3.609375 -16.453125 L 6.0625 -16.453125 C 7.78125 -11.523438 10.019531 -7.726562 12.78125 -5.0625 C 15.550781 -2.40625 18.625 -1.078125 22 -1.078125 C 24.601562 -1.078125 26.707031 -1.765625 28.3125 -3.140625 C 29.914062 -4.515625 30.71875 -6.316406 30.71875 -8.546875 C 30.71875 -10.585938 30.046875 -12.242188 28.703125 -13.515625 C 27.359375 -14.785156 25.179688 -15.820312 22.171875 -16.625 L 15.859375 -18.390625 C 11.703125 -19.535156 8.707031 -21.128906 6.875 -23.171875 C 5.039062 -25.222656 4.125 -27.96875 4.125 -31.40625 C 4.125 -34.875 5.140625 -37.660156 7.171875 -39.765625 C 9.210938 -41.867188 11.894531 -42.921875 15.21875 -42.921875 C 17.21875 -42.921875 19.378906 -42.484375 21.703125 -41.609375 C 24.023438 -40.742188 25.441406 -40.3125 25.953125 -40.3125 C 26.867188 -40.3125 27.632812 -40.53125 28.25 -40.96875 C 28.863281 -41.414062 29.332031 -42.066406 29.65625 -42.921875 L 31.5 -42.921875 L 31.5 -27.203125 L 29.484375 -27.203125 C 28.472656 -31.179688 26.6875 -34.34375 24.125 -36.6875 C 21.5625 -39.039062 18.648438 -40.21875 15.390625 -40.21875 C 13.179688 -40.21875 11.394531 -39.625 10.03125 -38.4375 C 8.675781 -37.25 8 -35.695312 8 -33.78125 C 8 -32.175781 8.570312 -30.804688 9.71875 -29.671875 C 10.863281 -28.535156 12.582031 -27.625 14.875 -26.9375 L 24.015625 -24.109375 C 28.054688 -22.898438 30.914062 -21.359375 32.59375 -19.484375 C 34.269531 -17.609375 35.109375 -15.066406 35.109375 -11.859375 C 35.109375 -7.847656 33.859375 -4.628906 31.359375 -2.203125 C 28.867188 0.210938 25.550781 1.421875 21.40625 1.421875 C 19.25 1.421875 16.800781 0.878906 14.0625 -0.203125 C 11.332031 -1.296875 9.664062 -1.84375 9.0625 -1.84375 C 8.175781 -1.84375 7.445312 -1.554688 6.875 -0.984375 C 6.300781 -0.410156 5.941406 0.390625 5.796875 1.421875 Z M 3.609375 1.421875 "/></g></g></g><g fill="#000000" fill-opacity="1"><g transform="translate(92.486775, 241.545042)"><g><path d="M 1.796875 0.0625 C 1.609375 0.0625 1.515625 0.0078125 1.515625 -0.09375 C 1.515625 -0.175781 1.566406 -0.21875 1.671875 -0.21875 L 1.890625 -0.203125 C 2.066406 -0.203125 2.179688 -0.300781 2.234375 -0.5 C 2.296875 -0.664062 2.328125 -0.960938 2.328125 -1.390625 L 2.328125 -5.5 L 2.203125 -5.5 C 1.691406 -5.5 1.28125 -5.445312 0.96875 -5.34375 C 0.757812 -5.269531 0.617188 -5.140625 0.546875 -4.953125 C 0.492188 -4.816406 0.4375 -4.75 0.375 -4.75 C 0.28125 -4.75 0.234375 -4.800781 0.234375 -4.90625 C 0.234375 -4.925781 0.238281 -4.957031 0.25 -5 C 0.269531 -5.039062 0.289062 -5.085938 0.3125 -5.140625 C 0.351562 -5.273438 0.378906 -5.421875 0.390625 -5.578125 C 0.398438 -5.734375 0.414062 -5.832031 0.4375 -5.875 C 0.46875 -5.925781 0.503906 -5.953125 0.546875 -5.953125 C 0.585938 -5.953125 0.625 -5.945312 0.65625 -5.9375 C 0.695312 -5.9375 0.75 -5.929688 0.8125 -5.921875 C 0.988281 -5.898438 1.210938 -5.890625 1.484375 -5.890625 L 4.265625 -5.890625 C 4.484375 -5.890625 4.640625 -5.898438 4.734375 -5.921875 C 4.835938 -5.941406 4.910156 -5.953125 4.953125 -5.953125 C 5.046875 -5.953125 5.09375 -5.910156 5.09375 -5.828125 C 5.09375 -5.773438 5.085938 -5.71875 5.078125 -5.65625 C 5.023438 -5.507812 4.992188 -5.382812 4.984375 -5.28125 C 4.972656 -5.175781 4.960938 -5.09375 4.953125 -5.03125 C 4.941406 -4.96875 4.925781 -4.914062 4.90625 -4.875 C 4.882812 -4.8125 4.847656 -4.78125 4.796875 -4.78125 C 4.753906 -4.78125 4.722656 -4.796875 4.703125 -4.828125 C 4.691406 -4.859375 4.679688 -4.921875 4.671875 -5.015625 C 4.660156 -5.117188 4.632812 -5.203125 4.59375 -5.265625 C 4.5625 -5.328125 4.515625 -5.375 4.453125 -5.40625 C 4.347656 -5.46875 4.179688 -5.5 3.953125 -5.5 L 3.015625 -5.5 L 3.015625 -1.390625 C 3.015625 -0.953125 3.03125 -0.664062 3.0625 -0.53125 C 3.101562 -0.40625 3.148438 -0.316406 3.203125 -0.265625 C 3.265625 -0.222656 3.34375 -0.203125 3.4375 -0.203125 L 3.65625 -0.21875 C 3.757812 -0.21875 3.8125 -0.175781 3.8125 -0.09375 C 3.8125 0.0078125 3.71875 0.0625 3.53125 0.0625 C 3.4375 0.0625 3.332031 0.0546875 3.21875 0.046875 C 2.863281 -0.015625 2.5625 -0.03125 2.3125 0 C 2.0625 0.0390625 1.890625 0.0625 1.796875 0.0625 Z M 1.796875 0.0625 "/></g></g></g><g fill="#000000" fill-opacity="1"><g transform="translate(105.02625, 241.545042)"><g><path d="M 0.578125 0.0625 C 0.390625 0.0625 0.296875 0.0078125 0.296875 -0.09375 C 0.296875 -0.175781 0.347656 -0.21875 0.453125 -0.21875 L 0.671875 -0.203125 C 0.847656 -0.203125 0.96875 -0.300781 1.03125 -0.5 C 1.082031 -0.664062 1.109375 -0.960938 1.109375 -1.390625 L 1.109375 -4.5 C 1.109375 -4.925781 1.085938 -5.207031 1.046875 -5.34375 C 1.003906 -5.476562 0.953125 -5.566406 0.890625 -5.609375 C 0.835938 -5.660156 0.765625 -5.6875 0.671875 -5.6875 L 0.453125 -5.671875 C 0.347656 -5.671875 0.296875 -5.710938 0.296875 -5.796875 C 0.296875 -5.898438 0.375 -5.953125 0.53125 -5.953125 C 0.695312 -5.953125 0.851562 -5.941406 1 -5.921875 C 1.144531 -5.898438 1.296875 -5.890625 1.453125 -5.890625 C 1.609375 -5.890625 1.757812 -5.898438 1.90625 -5.921875 C 2.050781 -5.941406 2.238281 -5.953125 2.46875 -5.953125 C 2.695312 -5.953125 2.941406 -5.914062 3.203125 -5.84375 C 3.460938 -5.769531 3.679688 -5.664062 3.859375 -5.53125 C 4.234375 -5.257812 4.421875 -4.894531 4.421875 -4.4375 C 4.421875 -3.925781 4.207031 -3.484375 3.78125 -3.109375 C 3.65625 -2.992188 3.507812 -2.894531 3.34375 -2.8125 L 4.765625 -0.734375 C 4.929688 -0.492188 5.109375 -0.351562 5.296875 -0.3125 C 5.359375 -0.289062 5.429688 -0.273438 5.515625 -0.265625 C 5.660156 -0.253906 5.734375 -0.207031 5.734375 -0.125 C 5.734375 -0.0390625 5.65625 0 5.5 0 L 4.65625 0 C 4.445312 0 4.257812 -0.128906 4.09375 -0.390625 L 3 -2.171875 C 2.894531 -2.328125 2.796875 -2.4375 2.703125 -2.5 C 2.617188 -2.5625 2.476562 -2.59375 2.28125 -2.59375 C 2.09375 -2.59375 1.929688 -2.585938 1.796875 -2.578125 L 1.796875 -1.390625 C 1.796875 -0.953125 1.8125 -0.664062 1.84375 -0.53125 C 1.882812 -0.40625 1.929688 -0.316406 1.984375 -0.265625 C 2.046875 -0.222656 2.125 -0.203125 2.21875 -0.203125 L 2.4375 -0.21875 C 2.539062 -0.21875 2.59375 -0.175781 2.59375 -0.09375 C 2.59375 0.0078125 2.5 0.0625 2.3125 0.0625 C 2.21875 0.0625 2.113281 0.0546875 2 0.046875 C 1.65625 -0.015625 1.351562 -0.03125 1.09375 0 C 0.84375 0.0390625 0.671875 0.0625 0.578125 0.0625 Z M 1.796875 -2.96875 C 1.984375 -2.945312 2.164062 -2.9375 2.34375 -2.9375 L 2.625 -2.9375 C 2.90625 -2.9375 3.144531 -3.035156 3.34375 -3.234375 C 3.570312 -3.453125 3.6875 -3.757812 3.6875 -4.15625 C 3.6875 -4.625 3.539062 -4.992188 3.25 -5.265625 C 2.988281 -5.523438 2.648438 -5.65625 2.234375 -5.65625 C 2.078125 -5.65625 1.960938 -5.632812 1.890625 -5.59375 C 1.828125 -5.550781 1.796875 -5.476562 1.796875 -5.375 Z M 1.796875 -2.96875 "/></g></g></g><g fill="#000000" fill-opacity="1"><g transform="translate(117.948049, 241.545042)"><g><path d="M 0.984375 0 C 0.828125 0 0.679688 0.0078125 0.546875 0.03125 C 0.421875 0.0507812 0.28125 0.0625 0.125 0.0625 C -0.0195312 0.0625 -0.09375 0.015625 -0.09375 -0.078125 C -0.09375 -0.179688 -0.0195312 -0.234375 0.125 -0.234375 C 0.257812 -0.234375 0.359375 -0.257812 0.421875 -0.3125 C 0.523438 -0.394531 0.625 -0.539062 0.71875 -0.75 C 0.8125 -0.957031 0.898438 -1.148438 0.984375 -1.328125 C 1.066406 -1.503906 1.160156 -1.710938 1.265625 -1.953125 C 1.378906 -2.191406 1.5 -2.457031 1.625 -2.75 C 1.757812 -3.039062 1.898438 -3.351562 2.046875 -3.6875 C 2.421875 -4.5625 2.664062 -5.144531 2.78125 -5.4375 C 2.90625 -5.738281 2.972656 -5.90625 2.984375 -5.9375 C 3.003906 -5.976562 3.019531 -6.007812 3.03125 -6.03125 C 3.070312 -6.09375 3.101562 -6.125 3.125 -6.125 C 3.15625 -6.125 3.175781 -6.117188 3.1875 -6.109375 C 3.207031 -6.109375 3.226562 -6.097656 3.25 -6.078125 C 3.289062 -6.015625 3.332031 -5.925781 3.375 -5.8125 C 3.425781 -5.707031 3.488281 -5.5625 3.5625 -5.375 C 3.632812 -5.1875 3.71875 -4.972656 3.8125 -4.734375 C 3.914062 -4.503906 4.019531 -4.25 4.125 -3.96875 C 4.238281 -3.695312 4.347656 -3.425781 4.453125 -3.15625 C 4.566406 -2.882812 4.675781 -2.617188 4.78125 -2.359375 C 4.882812 -2.109375 4.972656 -1.882812 5.046875 -1.6875 C 5.304688 -1.070312 5.46875 -0.703125 5.53125 -0.578125 C 5.601562 -0.460938 5.664062 -0.378906 5.71875 -0.328125 C 5.789062 -0.265625 5.894531 -0.234375 6.03125 -0.234375 C 6.175781 -0.234375 6.25 -0.179688 6.25 -0.078125 C 6.25 0.015625 6.160156 0.0625 5.984375 0.0625 C 5.898438 0.0625 5.828125 0.0546875 5.765625 0.046875 C 5.710938 0.046875 5.65625 0.0390625 5.59375 0.03125 C 5.425781 0.0078125 5.273438 0 5.140625 0 L 4.296875 0.0625 C 4.109375 0.0625 4.015625 0.0078125 4.015625 -0.09375 C 4.015625 -0.1875 4.066406 -0.234375 4.171875 -0.234375 L 4.4375 -0.203125 C 4.539062 -0.203125 4.609375 -0.222656 4.640625 -0.265625 C 4.679688 -0.316406 4.703125 -0.378906 4.703125 -0.453125 C 4.703125 -0.585938 4.644531 -0.800781 4.53125 -1.09375 L 4.171875 -2.015625 L 1.734375 -2.015625 C 1.660156 -1.835938 1.59375 -1.675781 1.53125 -1.53125 C 1.46875 -1.382812 1.410156 -1.238281 1.359375 -1.09375 C 1.285156 -0.875 1.25 -0.695312 1.25 -0.5625 C 1.25 -0.4375 1.269531 -0.34375 1.3125 -0.28125 C 1.363281 -0.226562 1.453125 -0.203125 1.578125 -0.203125 L 1.84375 -0.21875 C 1.945312 -0.21875 2 -0.175781 2 -0.09375 C 2 0.0078125 1.898438 0.0625 1.703125 0.0625 Z M 4.015625 -2.375 L 2.96875 -5 C 2.769531 -4.488281 2.410156 -3.613281 1.890625 -2.375 Z M 4.015625 -2.375 "/></g></g></g><g fill="#000000" fill-opacity="1"><g transform="translate(131.357643, 241.545042)"><g><path d="M 5.84375 -5.953125 C 6.03125 -5.953125 6.125 -5.898438 6.125 -5.796875 C 6.125 -5.691406 6.0625 -5.640625 5.9375 -5.640625 C 5.78125 -5.640625 5.671875 -5.609375 5.609375 -5.546875 C 5.492188 -5.441406 5.382812 -5.253906 5.28125 -4.984375 L 3.390625 -0.046875 C 3.316406 0.140625 3.25 0.234375 3.1875 0.234375 C 3.113281 0.234375 3.035156 0.128906 2.953125 -0.078125 L 0.921875 -4.984375 C 0.804688 -5.253906 0.710938 -5.425781 0.640625 -5.5 C 0.546875 -5.59375 0.429688 -5.640625 0.296875 -5.640625 C 0.160156 -5.640625 0.09375 -5.695312 0.09375 -5.8125 C 0.09375 -5.84375 0.113281 -5.875 0.15625 -5.90625 C 0.207031 -5.9375 0.269531 -5.953125 0.34375 -5.953125 C 0.425781 -5.953125 0.492188 -5.945312 0.546875 -5.9375 C 0.609375 -5.9375 0.664062 -5.929688 0.71875 -5.921875 C 0.863281 -5.898438 1.003906 -5.890625 1.140625 -5.890625 C 1.273438 -5.890625 1.414062 -5.898438 1.5625 -5.921875 C 1.707031 -5.941406 1.863281 -5.953125 2.03125 -5.953125 C 2.195312 -5.953125 2.28125 -5.90625 2.28125 -5.8125 C 2.28125 -5.71875 2.21875 -5.671875 2.09375 -5.671875 C 1.769531 -5.671875 1.609375 -5.582031 1.609375 -5.40625 C 1.609375 -5.28125 1.664062 -5.078125 1.78125 -4.796875 L 3.375 -0.984375 L 4.75 -4.78125 C 4.832031 -5.019531 4.875 -5.195312 4.875 -5.3125 C 4.875 -5.550781 4.691406 -5.671875 4.328125 -5.671875 C 4.203125 -5.671875 4.140625 -5.71875 4.140625 -5.8125 C 4.140625 -5.90625 4.238281 -5.953125 4.4375 -5.953125 C 4.53125 -5.953125 4.632812 -5.941406 4.75 -5.921875 C 4.863281 -5.898438 5.007812 -5.890625 5.1875 -5.890625 Z M 5.84375 -5.953125 "/></g></g></g><g fill="#000000" fill-opacity="1"><g transform="translate(144.767234, 241.545042)"><g><path d="M 0.53125 0.0625 C 0.363281 0.0625 0.28125 0.0078125 0.28125 -0.09375 C 0.28125 -0.175781 0.332031 -0.21875 0.4375 -0.21875 L 0.65625 -0.203125 C 0.820312 -0.203125 0.9375 -0.269531 1 -0.40625 C 1.0625 -0.570312 1.09375 -0.894531 1.09375 -1.375 L 1.09375 -4.5 C 1.09375 -4.976562 1.066406 -5.28125 1.015625 -5.40625 C 0.972656 -5.53125 0.921875 -5.609375 0.859375 -5.640625 C 0.804688 -5.671875 0.738281 -5.6875 0.65625 -5.6875 L 0.4375 -5.671875 C 0.332031 -5.671875 0.28125 -5.710938 0.28125 -5.796875 C 0.28125 -5.898438 0.359375 -5.953125 0.515625 -5.953125 C 0.671875 -5.953125 0.800781 -5.945312 0.90625 -5.9375 C 1.007812 -5.9375 1.113281 -5.929688 1.21875 -5.921875 C 1.488281 -5.898438 1.703125 -5.890625 1.859375 -5.890625 C 2.015625 -5.890625 2.179688 -5.890625 2.359375 -5.890625 C 2.535156 -5.898438 2.726562 -5.910156 2.9375 -5.921875 C 3.507812 -5.941406 3.90625 -5.953125 4.125 -5.953125 C 4.351562 -5.953125 4.476562 -5.9375 4.5 -5.90625 C 4.53125 -5.882812 4.546875 -5.851562 4.546875 -5.8125 C 4.546875 -5.769531 4.539062 -5.726562 4.53125 -5.6875 C 4.53125 -5.644531 4.53125 -5.597656 4.53125 -5.546875 C 4.53125 -5.472656 4.519531 -5.367188 4.5 -5.234375 C 4.488281 -5.109375 4.472656 -5.019531 4.453125 -4.96875 C 4.429688 -4.925781 4.398438 -4.90625 4.359375 -4.90625 C 4.328125 -4.90625 4.300781 -4.914062 4.28125 -4.9375 C 4.269531 -4.957031 4.25 -5 4.21875 -5.0625 C 4.195312 -5.132812 4.15625 -5.203125 4.09375 -5.265625 C 4.03125 -5.328125 3.929688 -5.378906 3.796875 -5.421875 C 3.535156 -5.503906 3.046875 -5.546875 2.328125 -5.546875 L 1.9375 -5.546875 C 1.875 -5.546875 1.832031 -5.535156 1.8125 -5.515625 C 1.789062 -5.492188 1.78125 -5.445312 1.78125 -5.375 L 1.78125 -3.515625 C 2.125 -3.472656 2.410156 -3.453125 2.640625 -3.453125 C 2.878906 -3.453125 3.046875 -3.453125 3.140625 -3.453125 C 3.234375 -3.460938 3.316406 -3.472656 3.390625 -3.484375 C 3.503906 -3.503906 3.582031 -3.554688 3.625 -3.640625 C 3.726562 -3.796875 3.8125 -3.875 3.875 -3.875 C 3.945312 -3.875 3.984375 -3.832031 3.984375 -3.75 L 3.84375 -3.125 L 3.859375 -2.796875 C 3.859375 -2.585938 3.804688 -2.484375 3.703125 -2.484375 C 3.617188 -2.484375 3.578125 -2.535156 3.578125 -2.640625 C 3.578125 -2.753906 3.566406 -2.835938 3.546875 -2.890625 C 3.535156 -2.953125 3.503906 -3 3.453125 -3.03125 C 3.359375 -3.082031 3.128906 -3.109375 2.765625 -3.109375 C 2.398438 -3.109375 2.070312 -3.085938 1.78125 -3.046875 L 1.78125 -2.015625 C 1.78125 -1.367188 1.796875 -0.832031 1.828125 -0.40625 C 2.066406 -0.351562 2.320312 -0.328125 2.59375 -0.328125 C 2.875 -0.328125 3.113281 -0.332031 3.3125 -0.34375 C 3.507812 -0.363281 3.679688 -0.394531 3.828125 -0.4375 C 4.109375 -0.519531 4.316406 -0.679688 4.453125 -0.921875 C 4.515625 -1.023438 4.570312 -1.078125 4.625 -1.078125 C 4.6875 -1.078125 4.71875 -1.035156 4.71875 -0.953125 C 4.71875 -0.921875 4.707031 -0.878906 4.6875 -0.828125 C 4.664062 -0.742188 4.628906 -0.625 4.578125 -0.46875 C 4.535156 -0.320312 4.503906 -0.210938 4.484375 -0.140625 C 4.460938 -0.078125 4.4375 -0.03125 4.40625 0 C 4.363281 0.0625 4.273438 0.09375 4.140625 0.09375 C 4.015625 0.09375 3.890625 0.0859375 3.765625 0.078125 C 3.648438 0.078125 3.523438 0.078125 3.390625 0.078125 C 3.242188 0.078125 3.007812 0.0664062 2.6875 0.046875 C 1.882812 0.00390625 1.414062 -0.0078125 1.28125 0 C 1.144531 0.0078125 1.039062 0.0195312 0.96875 0.03125 C 0.894531 0.0390625 0.820312 0.046875 0.75 0.046875 C 0.6875 0.0546875 0.613281 0.0625 0.53125 0.0625 Z M 0.53125 0.0625 "/></g></g></g><g fill="#000000" fill-opacity="1"><g transform="translate(157.034247, 241.545042)"><g><path d="M 0.546875 0.0625 C 0.378906 0.0625 0.296875 0.0078125 0.296875 -0.09375 C 0.296875 -0.175781 0.347656 -0.21875 0.453125 -0.21875 L 0.671875 -0.203125 C 0.847656 -0.203125 0.96875 -0.300781 1.03125 -0.5 C 1.082031 -0.664062 1.109375 -0.960938 1.109375 -1.390625 L 1.109375 -4.5 C 1.109375 -4.925781 1.085938 -5.207031 1.046875 -5.34375 C 1.003906 -5.476562 0.953125 -5.566406 0.890625 -5.609375 C 0.835938 -5.660156 0.765625 -5.6875 0.671875 -5.6875 L 0.453125 -5.671875 C 0.347656 -5.671875 0.296875 -5.710938 0.296875 -5.796875 C 0.296875 -5.898438 0.375 -5.953125 0.53125 -5.953125 C 0.695312 -5.953125 0.851562 -5.941406 1 -5.921875 C 1.144531 -5.898438 1.296875 -5.890625 1.453125 -5.890625 C 1.609375 -5.890625 1.753906 -5.898438 1.890625 -5.921875 C 2.035156 -5.941406 2.1875 -5.953125 2.34375 -5.953125 C 2.507812 -5.953125 2.59375 -5.898438 2.59375 -5.796875 C 2.59375 -5.710938 2.539062 -5.671875 2.4375 -5.671875 L 2.21875 -5.6875 C 2.039062 -5.6875 1.921875 -5.585938 1.859375 -5.390625 C 1.816406 -5.234375 1.796875 -4.9375 1.796875 -4.5 L 1.796875 -2.015625 C 1.796875 -1.367188 1.8125 -0.835938 1.84375 -0.421875 C 2.050781 -0.359375 2.285156 -0.328125 2.546875 -0.328125 C 2.804688 -0.328125 3.03125 -0.34375 3.21875 -0.375 C 3.414062 -0.40625 3.582031 -0.445312 3.71875 -0.5 C 3.988281 -0.613281 4.195312 -0.800781 4.34375 -1.0625 C 4.394531 -1.164062 4.445312 -1.21875 4.5 -1.21875 C 4.5625 -1.21875 4.59375 -1.171875 4.59375 -1.078125 C 4.59375 -1.046875 4.585938 -1.003906 4.578125 -0.953125 C 4.546875 -0.867188 4.507812 -0.75 4.46875 -0.59375 C 4.425781 -0.445312 4.390625 -0.332031 4.359375 -0.25 C 4.328125 -0.175781 4.296875 -0.113281 4.265625 -0.0625 C 4.191406 0.0390625 4.09375 0.09375 3.96875 0.09375 C 3.84375 0.09375 3.722656 0.0859375 3.609375 0.078125 C 3.503906 0.078125 3.390625 0.078125 3.265625 0.078125 C 3.148438 0.078125 3.019531 0.0703125 2.875 0.0625 C 2.738281 0.0507812 2.578125 0.0390625 2.390625 0.03125 C 2.210938 0.0195312 2.054688 0.0078125 1.921875 0 C 1.796875 0 1.664062 0 1.53125 0 C 1.40625 0 1.296875 0 1.203125 0 C 1.117188 0.0078125 1.039062 0.0195312 0.96875 0.03125 C 0.90625 0.0390625 0.835938 0.046875 0.765625 0.046875 C 0.703125 0.0546875 0.628906 0.0625 0.546875 0.0625 Z M 0.546875 0.0625 "/></g></g></g><g fill="#000000" fill-opacity="1"><g transform="translate(169.055166, 241.545042)"><g/></g></g><g fill="#000000" fill-opacity="1"><g transform="translate(178.562413, 241.545042)"><g><path d="M 0.984375 0 C 0.828125 0 0.679688 0.0078125 0.546875 0.03125 C 0.421875 0.0507812 0.28125 0.0625 0.125 0.0625 C -0.0195312 0.0625 -0.09375 0.015625 -0.09375 -0.078125 C -0.09375 -0.179688 -0.0195312 -0.234375 0.125 -0.234375 C 0.257812 -0.234375 0.359375 -0.257812 0.421875 -0.3125 C 0.523438 -0.394531 0.625 -0.539062 0.71875 -0.75 C 0.8125 -0.957031 0.898438 -1.148438 0.984375 -1.328125 C 1.066406 -1.503906 1.160156 -1.710938 1.265625 -1.953125 C 1.378906 -2.191406 1.5 -2.457031 1.625 -2.75 C 1.757812 -3.039062 1.898438 -3.351562 2.046875 -3.6875 C 2.421875 -4.5625 2.664062 -5.144531 2.78125 -5.4375 C 2.90625 -5.738281 2.972656 -5.90625 2.984375 -5.9375 C 3.003906 -5.976562 3.019531 -6.007812 3.03125 -6.03125 C 3.070312 -6.09375 3.101562 -6.125 3.125 -6.125 C 3.15625 -6.125 3.175781 -6.117188 3.1875 -6.109375 C 3.207031 -6.109375 3.226562 -6.097656 3.25 -6.078125 C 3.289062 -6.015625 3.332031 -5.925781 3.375 -5.8125 C 3.425781 -5.707031 3.488281 -5.5625 3.5625 -5.375 C 3.632812 -5.1875 3.71875 -4.972656 3.8125 -4.734375 C 3.914062 -4.503906 4.019531 -4.25 4.125 -3.96875 C 4.238281 -3.695312 4.347656 -3.425781 4.453125 -3.15625 C 4.566406 -2.882812 4.675781 -2.617188 4.78125 -2.359375 C 4.882812 -2.109375 4.972656 -1.882812 5.046875 -1.6875 C 5.304688 -1.070312 5.46875 -0.703125 5.53125 -0.578125 C 5.601562 -0.460938 5.664062 -0.378906 5.71875 -0.328125 C 5.789062 -0.265625 5.894531 -0.234375 6.03125 -0.234375 C 6.175781 -0.234375 6.25 -0.179688 6.25 -0.078125 C 6.25 0.015625 6.160156 0.0625 5.984375 0.0625 C 5.898438 0.0625 5.828125 0.0546875 5.765625 0.046875 C 5.710938 0.046875 5.65625 0.0390625 5.59375 0.03125 C 5.425781 0.0078125 5.273438 0 5.140625 0 L 4.296875 0.0625 C 4.109375 0.0625 4.015625 0.0078125 4.015625 -0.09375 C 4.015625 -0.1875 4.066406 -0.234375 4.171875 -0.234375 L 4.4375 -0.203125 C 4.539062 -0.203125 4.609375 -0.222656 4.640625 -0.265625 C 4.679688 -0.316406 4.703125 -0.378906 4.703125 -0.453125 C 4.703125 -0.585938 4.644531 -0.800781 4.53125 -1.09375 L 4.171875 -2.015625 L 1.734375 -2.015625 C 1.660156 -1.835938 1.59375 -1.675781 1.53125 -1.53125 C 1.46875 -1.382812 1.410156 -1.238281 1.359375 -1.09375 C 1.285156 -0.875 1.25 -0.695312 1.25 -0.5625 C 1.25 -0.4375 1.269531 -0.34375 1.3125 -0.28125 C 1.363281 -0.226562 1.453125 -0.203125 1.578125 -0.203125 L 1.84375 -0.21875 C 1.945312 -0.21875 2 -0.175781 2 -0.09375 C 2 0.0078125 1.898438 0.0625 1.703125 0.0625 Z M 4.015625 -2.375 L 2.96875 -5 C 2.769531 -4.488281 2.410156 -3.613281 1.890625 -2.375 Z M 4.015625 -2.375 "/></g></g></g><g fill="#000000" fill-opacity="1"><g transform="translate(191.972009, 241.545042)"><g><path d="M 3.421875 -5.828125 L 3.59375 -5.84375 C 3.675781 -5.84375 3.722656 -5.773438 3.734375 -5.640625 C 3.742188 -5.515625 3.753906 -5.40625 3.765625 -5.3125 C 3.785156 -5.226562 3.800781 -5.15625 3.8125 -5.09375 C 3.832031 -5.03125 3.847656 -4.972656 3.859375 -4.921875 C 3.867188 -4.878906 3.875 -4.84375 3.875 -4.8125 C 3.875 -4.78125 3.851562 -4.75 3.8125 -4.71875 C 3.78125 -4.6875 3.742188 -4.671875 3.703125 -4.671875 C 3.640625 -4.671875 3.578125 -4.742188 3.515625 -4.890625 C 3.390625 -5.160156 3.285156 -5.335938 3.203125 -5.421875 C 3.015625 -5.585938 2.734375 -5.671875 2.359375 -5.671875 C 1.847656 -5.671875 1.503906 -5.519531 1.328125 -5.21875 C 1.273438 -5.113281 1.25 -4.988281 1.25 -4.84375 C 1.25 -4.695312 1.28125 -4.5625 1.34375 -4.4375 C 1.414062 -4.3125 1.519531 -4.1875 1.65625 -4.0625 C 1.800781 -3.9375 1.984375 -3.800781 2.203125 -3.65625 C 2.421875 -3.507812 2.65625 -3.347656 2.90625 -3.171875 C 3.164062 -2.992188 3.363281 -2.835938 3.5 -2.703125 C 3.644531 -2.566406 3.757812 -2.429688 3.84375 -2.296875 C 4.007812 -2.035156 4.09375 -1.78125 4.09375 -1.53125 C 4.09375 -1.28125 4.054688 -1.054688 3.984375 -0.859375 C 3.921875 -0.671875 3.804688 -0.507812 3.640625 -0.375 C 3.304688 -0.0507812 2.800781 0.109375 2.125 0.109375 C 1.789062 0.109375 1.414062 0.0351562 1 -0.109375 C 0.90625 -0.140625 0.847656 -0.175781 0.828125 -0.21875 C 0.796875 -0.269531 0.769531 -0.363281 0.75 -0.5 C 0.726562 -0.644531 0.703125 -0.769531 0.671875 -0.875 C 0.648438 -0.988281 0.628906 -1.085938 0.609375 -1.171875 L 0.546875 -1.40625 C 0.523438 -1.46875 0.515625 -1.523438 0.515625 -1.578125 C 0.515625 -1.679688 0.554688 -1.734375 0.640625 -1.734375 C 0.742188 -1.734375 0.816406 -1.648438 0.859375 -1.484375 C 0.941406 -1.203125 1.015625 -1.019531 1.078125 -0.9375 C 1.328125 -0.601562 1.617188 -0.390625 1.953125 -0.296875 C 2.046875 -0.265625 2.171875 -0.25 2.328125 -0.25 C 2.492188 -0.25 2.65625 -0.269531 2.8125 -0.3125 C 2.96875 -0.363281 3.097656 -0.429688 3.203125 -0.515625 C 3.398438 -0.671875 3.5 -0.863281 3.5 -1.09375 C 3.5 -1.320312 3.425781 -1.523438 3.28125 -1.703125 C 3.132812 -1.890625 2.957031 -2.050781 2.75 -2.1875 C 2.550781 -2.320312 2.398438 -2.421875 2.296875 -2.484375 C 2.203125 -2.546875 2.109375 -2.609375 2.015625 -2.671875 C 1.273438 -3.171875 0.835938 -3.664062 0.703125 -4.15625 C 0.671875 -4.28125 0.65625 -4.425781 0.65625 -4.59375 C 0.65625 -4.757812 0.691406 -4.929688 0.765625 -5.109375 C 0.847656 -5.285156 0.96875 -5.4375 1.125 -5.5625 C 1.457031 -5.851562 1.894531 -6 2.4375 -6 C 2.675781 -6 2.867188 -5.972656 3.015625 -5.921875 C 3.222656 -5.859375 3.359375 -5.828125 3.421875 -5.828125 Z M 3.421875 -5.828125 "/></g></g></g><g fill="#000000" fill-opacity="1"><g transform="translate(203.650155, 241.545042)"><g><path d="M 3.421875 -5.828125 L 3.59375 -5.84375 C 3.675781 -5.84375 3.722656 -5.773438 3.734375 -5.640625 C 3.742188 -5.515625 3.753906 -5.40625 3.765625 -5.3125 C 3.785156 -5.226562 3.800781 -5.15625 3.8125 -5.09375 C 3.832031 -5.03125 3.847656 -4.972656 3.859375 -4.921875 C 3.867188 -4.878906 3.875 -4.84375 3.875 -4.8125 C 3.875 -4.78125 3.851562 -4.75 3.8125 -4.71875 C 3.78125 -4.6875 3.742188 -4.671875 3.703125 -4.671875 C 3.640625 -4.671875 3.578125 -4.742188 3.515625 -4.890625 C 3.390625 -5.160156 3.285156 -5.335938 3.203125 -5.421875 C 3.015625 -5.585938 2.734375 -5.671875 2.359375 -5.671875 C 1.847656 -5.671875 1.503906 -5.519531 1.328125 -5.21875 C 1.273438 -5.113281 1.25 -4.988281 1.25 -4.84375 C 1.25 -4.695312 1.28125 -4.5625 1.34375 -4.4375 C 1.414062 -4.3125 1.519531 -4.1875 1.65625 -4.0625 C 1.800781 -3.9375 1.984375 -3.800781 2.203125 -3.65625 C 2.421875 -3.507812 2.65625 -3.347656 2.90625 -3.171875 C 3.164062 -2.992188 3.363281 -2.835938 3.5 -2.703125 C 3.644531 -2.566406 3.757812 -2.429688 3.84375 -2.296875 C 4.007812 -2.035156 4.09375 -1.78125 4.09375 -1.53125 C 4.09375 -1.28125 4.054688 -1.054688 3.984375 -0.859375 C 3.921875 -0.671875 3.804688 -0.507812 3.640625 -0.375 C 3.304688 -0.0507812 2.800781 0.109375 2.125 0.109375 C 1.789062 0.109375 1.414062 0.0351562 1 -0.109375 C 0.90625 -0.140625 0.847656 -0.175781 0.828125 -0.21875 C 0.796875 -0.269531 0.769531 -0.363281 0.75 -0.5 C 0.726562 -0.644531 0.703125 -0.769531 0.671875 -0.875 C 0.648438 -0.988281 0.628906 -1.085938 0.609375 -1.171875 L 0.546875 -1.40625 C 0.523438 -1.46875 0.515625 -1.523438 0.515625 -1.578125 C 0.515625 -1.679688 0.554688 -1.734375 0.640625 -1.734375 C 0.742188 -1.734375 0.816406 -1.648438 0.859375 -1.484375 C 0.941406 -1.203125 1.015625 -1.019531 1.078125 -0.9375 C 1.328125 -0.601562 1.617188 -0.390625 1.953125 -0.296875 C 2.046875 -0.265625 2.171875 -0.25 2.328125 -0.25 C 2.492188 -0.25 2.65625 -0.269531 2.8125 -0.3125 C 2.96875 -0.363281 3.097656 -0.429688 3.203125 -0.515625 C 3.398438 -0.671875 3.5 -0.863281 3.5 -1.09375 C 3.5 -1.320312 3.425781 -1.523438 3.28125 -1.703125 C 3.132812 -1.890625 2.957031 -2.050781 2.75 -2.1875 C 2.550781 -2.320312 2.398438 -2.421875 2.296875 -2.484375 C 2.203125 -2.546875 2.109375 -2.609375 2.015625 -2.671875 C 1.273438 -3.171875 0.835938 -3.664062 0.703125 -4.15625 C 0.671875 -4.28125 0.65625 -4.425781 0.65625 -4.59375 C 0.65625 -4.757812 0.691406 -4.929688 0.765625 -5.109375 C 0.847656 -5.285156 0.96875 -5.4375 1.125 -5.5625 C 1.457031 -5.851562 1.894531 -6 2.4375 -6 C 2.675781 -6 2.867188 -5.972656 3.015625 -5.921875 C 3.222656 -5.859375 3.359375 -5.828125 3.421875 -5.828125 Z M 3.421875 -5.828125 "/></g></g></g><g fill="#000000" fill-opacity="1"><g transform="translate(215.3283, 241.545042)"><g><path d="M 0.640625 0.0625 C 0.453125 0.0625 0.359375 0.0078125 0.359375 -0.09375 C 0.359375 -0.175781 0.410156 -0.21875 0.515625 -0.21875 L 0.734375 -0.203125 C 0.890625 -0.203125 1 -0.28125 1.0625 -0.4375 C 1.125 -0.601562 1.15625 -0.921875 1.15625 -1.390625 L 1.140625 -4.5 C 1.140625 -4.976562 1.113281 -5.28125 1.0625 -5.40625 C 1.007812 -5.53125 0.957031 -5.609375 0.90625 -5.640625 C 0.851562 -5.671875 0.785156 -5.6875 0.703125 -5.6875 L 0.5 -5.671875 C 0.382812 -5.671875 0.328125 -5.710938 0.328125 -5.796875 C 0.328125 -5.898438 0.40625 -5.953125 0.5625 -5.953125 C 0.726562 -5.953125 0.882812 -5.941406 1.03125 -5.921875 C 1.175781 -5.898438 1.328125 -5.890625 1.484375 -5.890625 C 1.648438 -5.890625 1.800781 -5.898438 1.9375 -5.921875 C 2.082031 -5.941406 2.234375 -5.953125 2.390625 -5.953125 C 2.554688 -5.953125 2.640625 -5.898438 2.640625 -5.796875 C 2.640625 -5.710938 2.585938 -5.671875 2.484375 -5.671875 L 2.265625 -5.6875 C 2.109375 -5.6875 2 -5.609375 1.9375 -5.453125 C 1.875 -5.285156 1.84375 -4.96875 1.84375 -4.5 L 1.859375 -1.390625 C 1.859375 -0.921875 1.882812 -0.617188 1.9375 -0.484375 C 2 -0.359375 2.054688 -0.28125 2.109375 -0.25 C 2.171875 -0.21875 2.242188 -0.203125 2.328125 -0.203125 L 2.53125 -0.21875 C 2.632812 -0.21875 2.6875 -0.175781 2.6875 -0.09375 C 2.6875 0.0078125 2.59375 0.0625 2.40625 0.0625 C 2.3125 0.0625 2.207031 0.0546875 2.09375 0.046875 C 1.726562 -0.015625 1.414062 -0.03125 1.15625 0 C 0.90625 0.0390625 0.734375 0.0625 0.640625 0.0625 Z M 0.640625 0.0625 "/></g></g></g><g fill="#000000" fill-opacity="1"><g transform="translate(225.507911, 241.545042)"><g><path d="M 3.421875 -5.828125 L 3.59375 -5.84375 C 3.675781 -5.84375 3.722656 -5.773438 3.734375 -5.640625 C 3.742188 -5.515625 3.753906 -5.40625 3.765625 -5.3125 C 3.785156 -5.226562 3.800781 -5.15625 3.8125 -5.09375 C 3.832031 -5.03125 3.847656 -4.972656 3.859375 -4.921875 C 3.867188 -4.878906 3.875 -4.84375 3.875 -4.8125 C 3.875 -4.78125 3.851562 -4.75 3.8125 -4.71875 C 3.78125 -4.6875 3.742188 -4.671875 3.703125 -4.671875 C 3.640625 -4.671875 3.578125 -4.742188 3.515625 -4.890625 C 3.390625 -5.160156 3.285156 -5.335938 3.203125 -5.421875 C 3.015625 -5.585938 2.734375 -5.671875 2.359375 -5.671875 C 1.847656 -5.671875 1.503906 -5.519531 1.328125 -5.21875 C 1.273438 -5.113281 1.25 -4.988281 1.25 -4.84375 C 1.25 -4.695312 1.28125 -4.5625 1.34375 -4.4375 C 1.414062 -4.3125 1.519531 -4.1875 1.65625 -4.0625 C 1.800781 -3.9375 1.984375 -3.800781 2.203125 -3.65625 C 2.421875 -3.507812 2.65625 -3.347656 2.90625 -3.171875 C 3.164062 -2.992188 3.363281 -2.835938 3.5 -2.703125 C 3.644531 -2.566406 3.757812 -2.429688 3.84375 -2.296875 C 4.007812 -2.035156 4.09375 -1.78125 4.09375 -1.53125 C 4.09375 -1.28125 4.054688 -1.054688 3.984375 -0.859375 C 3.921875 -0.671875 3.804688 -0.507812 3.640625 -0.375 C 3.304688 -0.0507812 2.800781 0.109375 2.125 0.109375 C 1.789062 0.109375 1.414062 0.0351562 1 -0.109375 C 0.90625 -0.140625 0.847656 -0.175781 0.828125 -0.21875 C 0.796875 -0.269531 0.769531 -0.363281 0.75 -0.5 C 0.726562 -0.644531 0.703125 -0.769531 0.671875 -0.875 C 0.648438 -0.988281 0.628906 -1.085938 0.609375 -1.171875 L 0.546875 -1.40625 C 0.523438 -1.46875 0.515625 -1.523438 0.515625 -1.578125 C 0.515625 -1.679688 0.554688 -1.734375 0.640625 -1.734375 C 0.742188 -1.734375 0.816406 -1.648438 0.859375 -1.484375 C 0.941406 -1.203125 1.015625 -1.019531 1.078125 -0.9375 C 1.328125 -0.601562 1.617188 -0.390625 1.953125 -0.296875 C 2.046875 -0.265625 2.171875 -0.25 2.328125 -0.25 C 2.492188 -0.25 2.65625 -0.269531 2.8125 -0.3125 C 2.96875 -0.363281 3.097656 -0.429688 3.203125 -0.515625 C 3.398438 -0.671875 3.5 -0.863281 3.5 -1.09375 C 3.5 -1.320312 3.425781 -1.523438 3.28125 -1.703125 C 3.132812 -1.890625 2.957031 -2.050781 2.75 -2.1875 C 2.550781 -2.320312 2.398438 -2.421875 2.296875 -2.484375 C 2.203125 -2.546875 2.109375 -2.609375 2.015625 -2.671875 C 1.273438 -3.171875 0.835938 -3.664062 0.703125 -4.15625 C 0.671875 -4.28125 0.65625 -4.425781 0.65625 -4.59375 C 0.65625 -4.757812 0.691406 -4.929688 0.765625 -5.109375 C 0.847656 -5.285156 0.96875 -5.4375 1.125 -5.5625 C 1.457031 -5.851562 1.894531 -6 2.4375 -6 C 2.675781 -6 2.867188 -5.972656 3.015625 -5.921875 C 3.222656 -5.859375 3.359375 -5.828125 3.421875 -5.828125 Z M 3.421875 -5.828125 "/></g></g></g><g fill="#000000" fill-opacity="1"><g transform="translate(237.186056, 241.545042)"><g><path d="M 1.796875 0.0625 C 1.609375 0.0625 1.515625 0.0078125 1.515625 -0.09375 C 1.515625 -0.175781 1.566406 -0.21875 1.671875 -0.21875 L 1.890625 -0.203125 C 2.066406 -0.203125 2.179688 -0.300781 2.234375 -0.5 C 2.296875 -0.664062 2.328125 -0.960938 2.328125 -1.390625 L 2.328125 -5.5 L 2.203125 -5.5 C 1.691406 -5.5 1.28125 -5.445312 0.96875 -5.34375 C 0.757812 -5.269531 0.617188 -5.140625 0.546875 -4.953125 C 0.492188 -4.816406 0.4375 -4.75 0.375 -4.75 C 0.28125 -4.75 0.234375 -4.800781 0.234375 -4.90625 C 0.234375 -4.925781 0.238281 -4.957031 0.25 -5 C 0.269531 -5.039062 0.289062 -5.085938 0.3125 -5.140625 C 0.351562 -5.273438 0.378906 -5.421875 0.390625 -5.578125 C 0.398438 -5.734375 0.414062 -5.832031 0.4375 -5.875 C 0.46875 -5.925781 0.503906 -5.953125 0.546875 -5.953125 C 0.585938 -5.953125 0.625 -5.945312 0.65625 -5.9375 C 0.695312 -5.9375 0.75 -5.929688 0.8125 -5.921875 C 0.988281 -5.898438 1.210938 -5.890625 1.484375 -5.890625 L 4.265625 -5.890625 C 4.484375 -5.890625 4.640625 -5.898438 4.734375 -5.921875 C 4.835938 -5.941406 4.910156 -5.953125 4.953125 -5.953125 C 5.046875 -5.953125 5.09375 -5.910156 5.09375 -5.828125 C 5.09375 -5.773438 5.085938 -5.71875 5.078125 -5.65625 C 5.023438 -5.507812 4.992188 -5.382812 4.984375 -5.28125 C 4.972656 -5.175781 4.960938 -5.09375 4.953125 -5.03125 C 4.941406 -4.96875 4.925781 -4.914062 4.90625 -4.875 C 4.882812 -4.8125 4.847656 -4.78125 4.796875 -4.78125 C 4.753906 -4.78125 4.722656 -4.796875 4.703125 -4.828125 C 4.691406 -4.859375 4.679688 -4.921875 4.671875 -5.015625 C 4.660156 -5.117188 4.632812 -5.203125 4.59375 -5.265625 C 4.5625 -5.328125 4.515625 -5.375 4.453125 -5.40625 C 4.347656 -5.46875 4.179688 -5.5 3.953125 -5.5 L 3.015625 -5.5 L 3.015625 -1.390625 C 3.015625 -0.953125 3.03125 -0.664062 3.0625 -0.53125 C 3.101562 -0.40625 3.148438 -0.316406 3.203125 -0.265625 C 3.265625 -0.222656 3.34375 -0.203125 3.4375 -0.203125 L 3.65625 -0.21875 C 3.757812 -0.21875 3.8125 -0.175781 3.8125 -0.09375 C 3.8125 0.0078125 3.71875 0.0625 3.53125 0.0625 C 3.4375 0.0625 3.332031 0.0546875 3.21875 0.046875 C 2.863281 -0.015625 2.5625 -0.03125 2.3125 0 C 2.0625 0.0390625 1.890625 0.0625 1.796875 0.0625 Z M 1.796875 0.0625 "/></g></g></g><g fill="#000000" fill-opacity="1"><g transform="translate(249.72553, 241.545042)"><g><path d="M 0.984375 0 C 0.828125 0 0.679688 0.0078125 0.546875 0.03125 C 0.421875 0.0507812 0.28125 0.0625 0.125 0.0625 C -0.0195312 0.0625 -0.09375 0.015625 -0.09375 -0.078125 C -0.09375 -0.179688 -0.0195312 -0.234375 0.125 -0.234375 C 0.257812 -0.234375 0.359375 -0.257812 0.421875 -0.3125 C 0.523438 -0.394531 0.625 -0.539062 0.71875 -0.75 C 0.8125 -0.957031 0.898438 -1.148438 0.984375 -1.328125 C 1.066406 -1.503906 1.160156 -1.710938 1.265625 -1.953125 C 1.378906 -2.191406 1.5 -2.457031 1.625 -2.75 C 1.757812 -3.039062 1.898438 -3.351562 2.046875 -3.6875 C 2.421875 -4.5625 2.664062 -5.144531 2.78125 -5.4375 C 2.90625 -5.738281 2.972656 -5.90625 2.984375 -5.9375 C 3.003906 -5.976562 3.019531 -6.007812 3.03125 -6.03125 C 3.070312 -6.09375 3.101562 -6.125 3.125 -6.125 C 3.15625 -6.125 3.175781 -6.117188 3.1875 -6.109375 C 3.207031 -6.109375 3.226562 -6.097656 3.25 -6.078125 C 3.289062 -6.015625 3.332031 -5.925781 3.375 -5.8125 C 3.425781 -5.707031 3.488281 -5.5625 3.5625 -5.375 C 3.632812 -5.1875 3.71875 -4.972656 3.8125 -4.734375 C 3.914062 -4.503906 4.019531 -4.25 4.125 -3.96875 C 4.238281 -3.695312 4.347656 -3.425781 4.453125 -3.15625 C 4.566406 -2.882812 4.675781 -2.617188 4.78125 -2.359375 C 4.882812 -2.109375 4.972656 -1.882812 5.046875 -1.6875 C 5.304688 -1.070312 5.46875 -0.703125 5.53125 -0.578125 C 5.601562 -0.460938 5.664062 -0.378906 5.71875 -0.328125 C 5.789062 -0.265625 5.894531 -0.234375 6.03125 -0.234375 C 6.175781 -0.234375 6.25 -0.179688 6.25 -0.078125 C 6.25 0.015625 6.160156 0.0625 5.984375 0.0625 C 5.898438 0.0625 5.828125 0.0546875 5.765625 0.046875 C 5.710938 0.046875 5.65625 0.0390625 5.59375 0.03125 C 5.425781 0.0078125 5.273438 0 5.140625 0 L 4.296875 0.0625 C 4.109375 0.0625 4.015625 0.0078125 4.015625 -0.09375 C 4.015625 -0.1875 4.066406 -0.234375 4.171875 -0.234375 L 4.4375 -0.203125 C 4.539062 -0.203125 4.609375 -0.222656 4.640625 -0.265625 C 4.679688 -0.316406 4.703125 -0.378906 4.703125 -0.453125 C 4.703125 -0.585938 4.644531 -0.800781 4.53125 -1.09375 L 4.171875 -2.015625 L 1.734375 -2.015625 C 1.660156 -1.835938 1.59375 -1.675781 1.53125 -1.53125 C 1.46875 -1.382812 1.410156 -1.238281 1.359375 -1.09375 C 1.285156 -0.875 1.25 -0.695312 1.25 -0.5625 C 1.25 -0.4375 1.269531 -0.34375 1.3125 -0.28125 C 1.363281 -0.226562 1.453125 -0.203125 1.578125 -0.203125 L 1.84375 -0.21875 C 1.945312 -0.21875 2 -0.175781 2 -0.09375 C 2 0.0078125 1.898438 0.0625 1.703125 0.0625 Z M 4.015625 -2.375 L 2.96875 -5 C 2.769531 -4.488281 2.410156 -3.613281 1.890625 -2.375 Z M 4.015625 -2.375 "/></g></g></g><g fill="#000000" fill-opacity="1"><g transform="translate(263.135121, 241.545042)"><g><path d="M 0.59375 0.0625 C 0.40625 0.0625 0.3125 0.0078125 0.3125 -0.09375 C 0.3125 -0.175781 0.363281 -0.21875 0.46875 -0.21875 L 0.6875 -0.203125 C 0.863281 -0.203125 0.976562 -0.300781 1.03125 -0.5 C 1.082031 -0.664062 1.109375 -0.960938 1.109375 -1.390625 L 1.109375 -4.484375 C 1.109375 -4.921875 1.085938 -5.203125 1.046875 -5.328125 C 1.015625 -5.460938 0.96875 -5.550781 0.90625 -5.59375 C 0.851562 -5.644531 0.78125 -5.671875 0.6875 -5.671875 L 0.46875 -5.65625 C 0.363281 -5.65625 0.3125 -5.695312 0.3125 -5.78125 C 0.3125 -5.894531 0.40625 -5.953125 0.59375 -5.953125 L 1.171875 -5.890625 C 1.296875 -5.890625 1.40625 -5.898438 1.5 -5.921875 L 5.546875 -1.203125 L 5.546875 -4.5 C 5.546875 -4.925781 5.523438 -5.207031 5.484375 -5.34375 C 5.441406 -5.476562 5.390625 -5.566406 5.328125 -5.609375 C 5.265625 -5.660156 5.1875 -5.6875 5.09375 -5.6875 L 4.875 -5.671875 C 4.769531 -5.671875 4.71875 -5.710938 4.71875 -5.796875 C 4.71875 -5.898438 4.816406 -5.953125 5.015625 -5.953125 C 5.085938 -5.953125 5.179688 -5.941406 5.296875 -5.921875 C 5.453125 -5.898438 5.59375 -5.890625 5.71875 -5.890625 C 5.851562 -5.890625 5.976562 -5.898438 6.09375 -5.921875 C 6.21875 -5.941406 6.359375 -5.953125 6.515625 -5.953125 C 6.679688 -5.953125 6.765625 -5.898438 6.765625 -5.796875 C 6.765625 -5.710938 6.707031 -5.671875 6.59375 -5.671875 L 6.390625 -5.6875 C 6.210938 -5.6875 6.09375 -5.585938 6.03125 -5.390625 C 5.976562 -5.234375 5.953125 -4.9375 5.953125 -4.5 L 5.953125 -0.0625 C 5.953125 0.0390625 5.941406 0.109375 5.921875 0.140625 C 5.910156 0.171875 5.882812 0.1875 5.84375 0.1875 C 5.789062 0.1875 5.707031 0.125 5.59375 0 L 1.546875 -4.6875 L 1.546875 -1.390625 C 1.546875 -0.953125 1.5625 -0.664062 1.59375 -0.53125 C 1.632812 -0.40625 1.679688 -0.316406 1.734375 -0.265625 C 1.796875 -0.222656 1.875 -0.203125 1.96875 -0.203125 L 2.1875 -0.21875 C 2.289062 -0.21875 2.34375 -0.175781 2.34375 -0.09375 C 2.34375 0.0078125 2.257812 0.0625 2.09375 0.0625 C 1.925781 0.0625 1.773438 0.0507812 1.640625 0.03125 C 1.515625 0.0078125 1.390625 0 1.265625 0 C 1.140625 0 1.015625 0.0078125 0.890625 0.03125 C 0.773438 0.0507812 0.675781 0.0625 0.59375 0.0625 Z M 0.59375 0.0625 "/></g></g></g><g fill="#000000" fill-opacity="1"><g transform="translate(277.168736, 241.545042)"><g><path d="M 1.796875 0.0625 C 1.609375 0.0625 1.515625 0.0078125 1.515625 -0.09375 C 1.515625 -0.175781 1.566406 -0.21875 1.671875 -0.21875 L 1.890625 -0.203125 C 2.066406 -0.203125 2.179688 -0.300781 2.234375 -0.5 C 2.296875 -0.664062 2.328125 -0.960938 2.328125 -1.390625 L 2.328125 -5.5 L 2.203125 -5.5 C 1.691406 -5.5 1.28125 -5.445312 0.96875 -5.34375 C 0.757812 -5.269531 0.617188 -5.140625 0.546875 -4.953125 C 0.492188 -4.816406 0.4375 -4.75 0.375 -4.75 C 0.28125 -4.75 0.234375 -4.800781 0.234375 -4.90625 C 0.234375 -4.925781 0.238281 -4.957031 0.25 -5 C 0.269531 -5.039062 0.289062 -5.085938 0.3125 -5.140625 C 0.351562 -5.273438 0.378906 -5.421875 0.390625 -5.578125 C 0.398438 -5.734375 0.414062 -5.832031 0.4375 -5.875 C 0.46875 -5.925781 0.503906 -5.953125 0.546875 -5.953125 C 0.585938 -5.953125 0.625 -5.945312 0.65625 -5.9375 C 0.695312 -5.9375 0.75 -5.929688 0.8125 -5.921875 C 0.988281 -5.898438 1.210938 -5.890625 1.484375 -5.890625 L 4.265625 -5.890625 C 4.484375 -5.890625 4.640625 -5.898438 4.734375 -5.921875 C 4.835938 -5.941406 4.910156 -5.953125 4.953125 -5.953125 C 5.046875 -5.953125 5.09375 -5.910156 5.09375 -5.828125 C 5.09375 -5.773438 5.085938 -5.71875 5.078125 -5.65625 C 5.023438 -5.507812 4.992188 -5.382812 4.984375 -5.28125 C 4.972656 -5.175781 4.960938 -5.09375 4.953125 -5.03125 C 4.941406 -4.96875 4.925781 -4.914062 4.90625 -4.875 C 4.882812 -4.8125 4.847656 -4.78125 4.796875 -4.78125 C 4.753906 -4.78125 4.722656 -4.796875 4.703125 -4.828125 C 4.691406 -4.859375 4.679688 -4.921875 4.671875 -5.015625 C 4.660156 -5.117188 4.632812 -5.203125 4.59375 -5.265625 C 4.5625 -5.328125 4.515625 -5.375 4.453125 -5.40625 C 4.347656 -5.46875 4.179688 -5.5 3.953125 -5.5 L 3.015625 -5.5 L 3.015625 -1.390625 C 3.015625 -0.953125 3.03125 -0.664062 3.0625 -0.53125 C 3.101562 -0.40625 3.148438 -0.316406 3.203125 -0.265625 C 3.265625 -0.222656 3.34375 -0.203125 3.4375 -0.203125 L 3.65625 -0.21875 C 3.757812 -0.21875 3.8125 -0.175781 3.8125 -0.09375 C 3.8125 0.0078125 3.71875 0.0625 3.53125 0.0625 C 3.4375 0.0625 3.332031 0.0546875 3.21875 0.046875 C 2.863281 -0.015625 2.5625 -0.03125 2.3125 0 C 2.0625 0.0390625 1.890625 0.0625 1.796875 0.0625 Z M 1.796875 0.0625 "/></g></g></g></svg>